Snow White Deadly Summer.2012.DvdRip.Xvid.AC3.MHST
 
http://www.imdb.com/title/tt2149137/

Video
ID                                       : 0
Format                                   : MPEG-4 Visual
Format profile                           : Advanced Simple@L5
Format settings, BVOP                    : 2
Format settings, QPel                    : No
Format settings, GMC                     : No warppoints
Format settings, Matrix                  : Default (H.263)
Codec ID                                 : XVID
Codec ID/Hint                            : XviD
Duration                                 : 1h 23mn
Bit rate                                 : 1 142 Kbps
Width                                    : 720 pixels
Height                                   : 400 pixels
Display aspect ratio                     : 16:9
Frame rate                               : 23.976 fps
Color space                              : YUV
Chroma subsampling                       : 4:2:0
Bit depth                                : 8 bits
Scan type                                : Progressive
Compression mode                         : Lossy
Bits/(Pixel*Frame)                       : 0.165
Stream size                              : 680 MiB (90%)
Writing library                          : XviD 1.2.1 (UTC 2008-12-04)

Audio
ID                                       : 1
Format                                   : MPEG Audio
Format version                           : Version 1
Format profile                           : Layer 3
Mode                                     : Joint stereo
Codec ID                                 : 55
Codec ID/Hint                            : MP3
Duration                                 : 1h 23mn
Bit rate mode                            : Constant
Bit rate                                 : 128 Kbps
Channel(s)                               : 2 channels
Sampling rate                            : 44.1 KHz
Compression mode                         : Lossy
Stream size                              : 76.2 MiB (10%)
Alignment                                : Aligned on interleaves
Interleave, duration                     : 167 ms (4.00 video frames)
Interleave, preload duration             : 208 ms


Poster:

 
http://i.imgur.com/7m41i.jpg


Screens:

 
http://i.imgur.com/PkWZ7.jpg

 
http://i.imgur.com/Vn7PG.jpg

 
http://i.imgur.com/omfdb.jpg


ENJOY!